<?xml version="1.0" encoding="UTF-8"?>
<svg version="1.1" xmlns="http://www.w3.org/2000/svg" width="26" height="43">
<path d="M0 0 C8.58 0 17.16 0 26 0 C26 14.19 26 28.38 26 43 C17.42 43 8.84 43 0 43 C0 28.81 0 14.62 0 0 Z " fill="#FDFEFD" transform="translate(0,0)"/>
<path d="M0 0 C0.99 0.66 1.98 1.32 3 2 C2.67 2.99 2.34 3.98 2 5 C0.68 4.67 -0.64 4.34 -2 4 C-2 3.01 -2 2.02 -2 1 C-2.99 1 -3.98 1 -5 1 C-5 3.64 -5 6.28 -5 9 C-3.35 9 -1.7 9 0 9 C0 9.33 0 9.66 0 10 C-1.65 10 -3.3 10 -5 10 C-4.67 16.27 -4.34 22.54 -4 29 C-6.64 29 -9.28 29 -12 29 C-11.67 22.73 -11.34 16.46 -11 10 C-11.99 9.67 -12.98 9.34 -14 9 C-13.01 9 -12.02 9 -11 9 C-10.731875 7.88625 -10.46375 6.7725 -10.1875 5.625 C-8.31521368 -0.09040035 -5.58756107 -0.46563009 0 0 Z " fill="#502826" transform="translate(19,9)"/>
<path d="M0 0 C0.99 0.66 1.98 1.32 3 2 C2.67 2.99 2.34 3.98 2 5 C0.68 4.67 -0.64 4.34 -2 4 C-2 3.01 -2 2.02 -2 1 C-2.99 1 -3.98 1 -5 1 C-5 3.64 -5 6.28 -5 9 C-5.33 9 -5.66 9 -6 9 C-6 6.69 -6 4.38 -6 2 C-6.66 1.67 -7.32 1.34 -8 1 C-5.22899606 -0.38550197 -3.0665294 -0.1877467 0 0 Z " fill="#54455B" transform="translate(19,9)"/>
</svg>
